<svg width="130" height="130" viewBox="0 0 130 130" fill="none" xmlns="http://www.w3.org/2000/svg">
<circle cx="65" cy="65" r="64.5" fill="white" stroke="#8D7E7E"/>
<g clip-path="url(#clip0)">
<path d="M85.6054 45.957H44.3944C43.718 45.957 43.0847 46.1233 42.5117 46.3975L64.9022 68.788L69.9207 63.965C69.9207 63.965 69.9211 63.9646 69.9212 63.9644C69.9213 63.9642 69.9217 63.964 69.9217 63.964L87.4888 46.3979C86.9157 46.1235 86.282 45.957 85.6054 45.957Z" fill="#6B76FF"/>
<path d="M89.5599 48.4695L73.0283 65.0002L89.5593 81.5312C89.8334 80.9582 89.9997 80.3249 89.9997 79.6484V50.3516C89.9997 49.6755 89.8338 49.0423 89.5599 48.4695Z" fill="#6B76FF"/>
<path d="M40.4404 48.4688C40.1663 49.0418 40 49.6751 40 50.3516V79.6484C40 80.3245 40.1661 80.9579 40.44 81.5307L56.9716 65L40.4404 48.4688Z" fill="#6B76FF"/>
<path d="M70.9578 67.0716L65.9387 71.8951C65.6525 72.1812 65.2777 72.3243 64.903 72.3243C64.5283 72.3243 64.1534 72.1812 63.8674 71.8951L59.0436 67.0714L42.5117 83.6021C43.0848 83.8765 43.7185 84.043 44.3951 84.043H85.6061C86.2825 84.043 86.9158 83.8767 87.4888 83.6025L70.9578 67.0716Z" fill="#6B76FF"/>
</g>
<defs>
<clipPath id="clip0">
<rect x="40" y="40" width="50" height="50" fill="white"/>
</clipPath>
</defs>
</svg>
