<svg width="46" height="46" viewBox="0 0 46 46" fill="none" xmlns="http://www.w3.org/2000/svg">
<rect x="0.576477" width="44.4556" height="46" fill="#D82727"/>
<g clip-path="url(#clip0)">
<path d="M32.3628 13.8594H13.2457C12.9319 13.8594 12.6381 13.9392 12.3723 14.0708L22.759 24.8182L25.0869 22.5032C25.0869 22.5032 25.0871 22.503 25.0872 22.5029C25.0872 22.5028 25.0874 22.5027 25.0874 22.5027L33.2365 14.071C32.9707 13.9393 32.6767 13.8594 32.3628 13.8594Z" fill="white"/>
<path d="M34.1973 15.0652L26.5286 22.9999L34.197 30.9348C34.3242 30.6598 34.4014 30.3558 34.4014 30.0311V15.9686C34.4014 15.644 34.3244 15.3401 34.1973 15.0652Z" fill="white"/>
<path d="M11.4115 15.0649C11.2843 15.34 11.2072 15.6439 11.2072 15.9686V30.0311C11.2072 30.3557 11.2842 30.6597 11.4113 30.9346L19.08 22.9999L11.4115 15.0649Z" fill="white"/>
<path d="M25.5677 23.9945L23.2394 26.3098C23.1067 26.4471 22.9328 26.5158 22.759 26.5158C22.5852 26.5158 22.4113 26.4471 22.2786 26.3098L20.0409 23.9944L12.372 31.9291C12.6379 32.0608 12.9318 32.1407 13.2457 32.1407H32.3628C32.6766 32.1407 32.9704 32.0609 33.2362 31.9293L25.5677 23.9945Z" fill="white"/>
</g>
<defs>
<clipPath id="clip0">
<rect x="11.2072" y="11" width="23.1942" height="24" fill="white"/>
</clipPath>
</defs>
</svg>
