<svg width="130" height="130" viewBox="0 0 130 130" fill="none" xmlns="http://www.w3.org/2000/svg">
<circle cx="65" cy="65" r="64.5" fill="white" stroke="#8D7E7E"/>
<g clip-path="url(#clip0)">
<path d="M85.988 72.8193C82.9268 72.8193 79.9211 72.3405 77.0728 71.3992C75.6771 70.9232 73.9613 71.3599 73.1095 72.2348L67.4875 76.4788C60.9676 72.9984 56.9514 68.9836 53.5186 62.5126L57.6378 57.0371C58.7079 55.9684 59.0918 54.4072 58.6319 52.9423C57.6866 50.079 57.2064 47.0747 57.2064 44.0122C57.2065 41.7999 55.4066 40 53.1944 40H44.0121C41.7999 40 40 41.7999 40 44.0121C40 69.3702 60.6299 90 85.988 90C88.2003 90 90.0001 88.2001 90.0001 85.9879V76.8312C90 74.6191 88.2001 72.8193 85.988 72.8193Z" fill="#6B76FF"/>
</g>
<defs>
<clipPath id="clip0">
<rect x="40" y="40" width="50" height="50" fill="white"/>
</clipPath>
</defs>
</svg>
