<svg width="130" height="130" viewBox="0 0 130 130" fill="none" xmlns="http://www.w3.org/2000/svg">
<circle cx="65" cy="65" r="64.5" fill="white" stroke="#8D7E7E"/>
<path d="M68 40C54.2148 40 43 51.2148 43 65C43 78.7852 54.2148 90 68 90C81.7852 90 93 78.7852 93 65C93 51.2148 81.7852 40 68 40ZM66.5352 52.2711C64.3066 52.1754 62.1006 51.8622 59.9941 51.3529C60.3306 50.5556 60.6956 49.79 61.0893 49.0645C62.7044 46.0883 64.6873 43.9997 66.5352 43.2433V52.2711ZM66.5352 55.2031V63.5352H57.3856C57.5145 60.2831 58.0688 57.0547 58.9855 54.1182C61.4147 54.7301 63.9648 55.1005 66.5352 55.2031ZM66.5352 66.4648V74.7969C63.9648 74.8995 61.4147 75.2699 58.9855 75.8818C58.0688 72.9453 57.5145 69.7169 57.3856 66.4648H66.5352ZM66.5352 77.7289V86.7567C64.6873 86.0003 62.7044 83.9117 61.0893 80.9355C60.6956 80.21 60.3306 79.4444 59.9941 78.6471C62.1006 78.1378 64.3062 77.8246 66.5352 77.7289ZM69.4648 77.7289C71.6934 77.8246 73.8994 78.1378 76.0059 78.6471C75.6694 79.4444 75.3044 80.21 74.9107 80.9355C73.2956 83.9117 71.3127 86.0003 69.4648 86.7567V77.7289ZM69.4648 74.7969V66.4648H78.6144C78.4855 69.7169 77.9312 72.9453 77.0145 75.8818C74.5853 75.2699 72.0352 74.8995 69.4648 74.7969ZM69.4648 63.5352V55.2031C72.0352 55.1005 74.5853 54.7301 77.0145 54.1182C77.9312 57.0547 78.4855 60.2831 78.6144 63.5352H69.4648ZM69.4648 52.2711V43.2433C71.3127 43.9997 73.2956 46.0883 74.9107 49.0645C75.3044 49.79 75.6694 50.5556 76.0059 51.3529C73.8994 51.8622 71.6934 52.1754 69.4648 52.2711ZM77.4856 47.6672C76.7521 46.3152 75.9552 45.1235 75.1152 44.1069C78.0441 45.1071 80.6972 46.7074 82.9284 48.7597C81.6559 49.4414 80.2845 50.0334 78.8418 50.5282C78.4324 49.5341 77.98 48.5777 77.4856 47.6672ZM58.5144 47.6672C58.02 48.5777 57.5676 49.5341 57.1582 50.5282C55.7155 50.0334 54.3441 49.441 53.0716 48.7597C55.3028 46.7074 57.9559 45.1071 60.8848 44.1069C60.0448 45.1235 59.2483 46.3148 58.5144 47.6672ZM56.1672 53.2816C55.1674 56.4803 54.5795 59.9673 54.4529 63.5352H45.9797C46.2932 58.774 48.1216 54.4199 50.9887 50.9539C52.5798 51.8664 54.3224 52.6469 56.1672 53.2816ZM54.4529 66.4648C54.5795 70.0331 55.1674 73.5197 56.1672 76.7184C54.3224 77.3531 52.5798 78.1336 50.9887 79.0461C48.1216 75.5801 46.2932 71.226 45.9797 66.4648H54.4529ZM57.1582 79.4718C57.5676 80.4659 58.02 81.4223 58.5144 82.3328C59.2483 83.6848 60.0448 84.8765 60.8848 85.8931C57.9559 84.8929 55.3028 83.2926 53.0719 81.2403C54.3438 80.559 55.7155 79.9666 57.1582 79.4718ZM77.4856 82.3328C77.98 81.4223 78.4324 80.4659 78.8418 79.4718C80.2845 79.9666 81.6559 80.559 82.9284 81.2403C80.6972 83.2926 78.0441 84.8929 75.1152 85.8931C75.9552 84.8765 76.7517 83.6852 77.4856 82.3328ZM79.8328 76.7184C80.8326 73.5197 81.4205 70.0327 81.5471 66.4648H90.0203C89.7068 71.226 87.8784 75.5801 85.0113 79.0461C83.4202 78.1336 81.6776 77.3531 79.8328 76.7184ZM81.5471 63.5352C81.4205 59.9669 80.8326 56.4803 79.8328 53.2816C81.6776 52.6469 83.4202 51.8664 85.0113 50.9539C87.8784 54.4199 89.7068 58.774 90.0203 63.5352H81.5471Z" fill="#6B76FF"/>
</svg>
